<svg xmlns="http://www.w3.org/2000/svg" width="850" height="380" viewBox="0 0 850 380">
  <defs>    <filter id="proj-glow-0" x="-80%" y="-80%" width="260%" height="260%">
      <feGaussianBlur stdDeviation="6" in="SourceGraphic" result="blur"/>
      <feFlood flood-color="#00d4ff" flood-opacity="0.3" result="color"/>
      <feComposite in="color" in2="blur" operator="in" result="glow"/>
      <feMerge><feMergeNode in="glow"/><feMergeNode in="SourceGraphic"/></feMerge>
    </filter>
    <filter id="proj-glow-1" x="-80%" y="-80%" width="260%" height="260%">
      <feGaussianBlur stdDeviation="6" in="SourceGraphic" result="blur"/>
      <feFlood flood-color="#a78bfa" flood-opacity="0.3" result="color"/>
      <feComposite in="color" in2="blur" operator="in" result="glow"/>
      <feMerge><feMergeNode in="glow"/><feMergeNode in="SourceGraphic"/></feMerge>
    </filter>
    <linearGradient id="card-bg-0" x1="0" y1="0" x2="1" y2="1">
      <stop offset="0%" stop-color="#1a2332" stop-opacity="0.7"/>
      <stop offset="100%" stop-color="#0f1623" stop-opacity="0.98"/>
    </linearGradient>
    <linearGradient id="card-bg-1" x1="0" y1="0" x2="1" y2="1">
      <stop offset="0%" stop-color="#1a2332" stop-opacity="0.7"/>
      <stop offset="100%" stop-color="#0f1623" stop-opacity="0.98"/>
    </linearGradient>
    <style>
      @keyframes card-appear {
        from { opacity: 0; transform: translateY(30px); }
        to { opacity: 1; transform: translateY(0); }
      }
    </style></defs>
  <rect x="0.5" y="0.5" width="849" height="379" rx="25" fill="#0f1623" stroke="#1a2332" stroke-width="2"/>
  <circle cx="422.4" cy="265.9" r="0.8" fill="#00d4ff" opacity="0.3"/>
<circle cx="833.6" cy="259.9" r="0.8" fill="#94a3b8" opacity="0.3"/>
<circle cx="411.3" cy="342.7" r="0.8" fill="#94a3b8" opacity="0.3"/>
<circle cx="172.4" cy="164.9" r="0.8" fill="#94a3b8" opacity="0.3"/>
<circle cx="668.3" cy="331.7" r="0.8" fill="#94a3b8" opacity="0.3"/>
<circle cx="456.1" cy="48.6" r="0.8" fill="#94a3b8" opacity="0.3"/>
<circle cx="689.0" cy="273.7" r="0.8" fill="#00d4ff" opacity="0.3"/>
<circle cx="68.3" cy="120.3" r="0.8" fill="#94a3b8" opacity="0.3"/>
<circle cx="781.4" cy="306.1" r="0.8" fill="#94a3b8" opacity="0.3"/>
<circle cx="32.3" cy="214.6" r="0.8" fill="#94a3b8" opacity="0.3"/>
<circle cx="467.1" cy="77.1" r="0.8" fill="#94a3b8" opacity="0.3"/>
<circle cx="739.1" cy="173.0" r="0.8" fill="#94a3b8" opacity="0.3"/>
<circle cx="601.2" cy="290.2" r="0.8" fill="#00d4ff" opacity="0.3"/>
<circle cx="420.5" cy="48.5" r="0.8" fill="#94a3b8" opacity="0.3"/>
<circle cx="615.3" cy="49.2" r="0.8" fill="#94a3b8" opacity="0.3"/>
<circle cx="689.6" cy="330.4" r="0.8" fill="#94a3b8" opacity="0.3"/>
<circle cx="157.3" cy="105.2" r="0.8" fill="#94a3b8" opacity="0.3"/>
<circle cx="268.8" cy="239.8" r="0.8" fill="#94a3b8" opacity="0.3"/>
<circle cx="326.7" cy="275.3" r="0.8" fill="#00d4ff" opacity="0.3"/>
<circle cx="369.5" cy="331.4" r="0.8" fill="#94a3b8" opacity="0.3"/>
<circle cx="269.9" cy="321.6" r="0.8" fill="#94a3b8" opacity="0.3"/>
<circle cx="331.9" cy="305.3" r="0.8" fill="#94a3b8" opacity="0.3"/>
<circle cx="276.8" cy="255.9" r="0.8" fill="#94a3b8" opacity="0.3"/>
<circle cx="410.2" cy="49.2" r="0.8" fill="#94a3b8" opacity="0.3"/>
<circle cx="622.5" cy="170.9" r="0.8" fill="#00d4ff" opacity="0.3"/>
<circle cx="449.7" cy="229.4" r="0.8" fill="#94a3b8" opacity="0.3"/>
<circle cx="69.4" cy="70.2" r="0.8" fill="#94a3b8" opacity="0.3"/>
<circle cx="11.7" cy="356.4" r="0.8" fill="#94a3b8" opacity="0.3"/>
<circle cx="701.6" cy="20.5" r="0.8" fill="#94a3b8" opacity="0.3"/>
<circle cx="681.0" cy="180.9" r="0.8" fill="#94a3b8" opacity="0.3"/>
  
    <g transform="translate(45, 55)">
        <text fill="#64748b" font-size="13" font-family="monospace" letter-spacing="5" font-weight="bold">FEATURED SYSTEMS</text>
        <circle cx="255" cy="-4" r="3" fill="#00d4ff"><animate attributeName="opacity" values="1;0.2;1" dur="2.5s" repeatCount="indefinite"/></circle>
        <line x1="0" y1="20" x2="760" y2="20" stroke="#1a2332" stroke-width="1.5" opacity="0.4"/>
    </g>
  
    <g opacity="0" style="animation: card-appear 1s ease 0.0s forwards">
      <rect x="36.666666666666664" y="100" width="370" height="240" rx="25" fill="#00d4ff" opacity="0.03" filter="url(#proj-glow-0)"/>
      <rect x="36.666666666666664" y="100" width="370" height="240" rx="25" fill="url(#card-bg-0)" stroke="#1a2332" stroke-width="2"/>
      
      <g transform="translate(0, 145)">
          <circle cx="221.66666666666666" cy="0" r="28" fill="none" stroke="#00d4ff" stroke-width="1" stroke-dasharray="6,4" opacity="0.3">
            <animateTransform attributeName="transform" type="rotate" from="0 221.66666666666666 0" to="360 221.66666666666666 0" dur="15s" repeatCount="indefinite"/>
          </circle>
          <circle cx="221.66666666666666" cy="0" r="10" fill="#00d4ff" filter="url(#proj-glow-0)"/>
          <circle cx="221.66666666666666" cy="0" r="3" fill="#ffffff"/>
      </g>

      <text x="221.66666666666666" y="210" fill="#f1f5f9" font-size="19" font-weight="800" font-family="sans-serif" text-anchor="middle">Project-Builder</text>
      
      <g transform="translate(0, 15)">
          <text x="221.66666666666666" y="225" fill="#94a3b8" font-size="13" font-family="sans-serif" text-anchor="middle">A canvas tool that simplificates the</text>
          <text x="221.66666666666666" y="245" fill="#94a3b8" font-size="13" font-family="sans-serif" text-anchor="middle">architecture of a system</text>
      </g>

      <rect x="171.66666666666666" y="290" width="100" height="24" rx="12" fill="#00d4ff" opacity="0.12"/>
      <text x="221.66666666666666" y="306" fill="#00d4ff" font-size="10" font-family="monospace" font-weight="bold" text-anchor="middle" letter-spacing="1">BACKEND</text>
    </g>
    <g opacity="0" style="animation: card-appear 1s ease 0.25s forwards">
      <rect x="443.33333333333337" y="100" width="370" height="240" rx="25" fill="#a78bfa" opacity="0.03" filter="url(#proj-glow-1)"/>
      <rect x="443.33333333333337" y="100" width="370" height="240" rx="25" fill="url(#card-bg-1)" stroke="#1a2332" stroke-width="2"/>
      
      <g transform="translate(0, 145)">
          <circle cx="628.3333333333334" cy="0" r="28" fill="none" stroke="#a78bfa" stroke-width="1" stroke-dasharray="6,4" opacity="0.3">
            <animateTransform attributeName="transform" type="rotate" from="0 628.3333333333334 0" to="360 628.3333333333334 0" dur="15s" repeatCount="indefinite"/>
          </circle>
          <circle cx="628.3333333333334" cy="0" r="10" fill="#a78bfa" filter="url(#proj-glow-1)"/>
          <circle cx="628.3333333333334" cy="0" r="3" fill="#ffffff"/>
      </g>

      <text x="628.3333333333334" y="210" fill="#f1f5f9" font-size="19" font-weight="800" font-family="sans-serif" text-anchor="middle">SecurityOn-Frontend-</text>
      
      <g transform="translate(0, 15)">
          <text x="628.3333333333334" y="225" fill="#94a3b8" font-size="13" font-family="sans-serif" text-anchor="middle">Social media destined to teach users how</text>
          <text x="628.3333333333334" y="245" fill="#94a3b8" font-size="13" font-family="sans-serif" text-anchor="middle">to protect themselves online</text>
      </g>

      <rect x="578.3333333333334" y="290" width="100" height="24" rx="12" fill="#a78bfa" opacity="0.12"/>
      <text x="628.3333333333334" y="306" fill="#a78bfa" font-size="10" font-family="monospace" font-weight="bold" text-anchor="middle" letter-spacing="1">FRONTEND</text>
    </g>
</svg>