<svg xmlns="http://www.w3.org/2000/svg" width="850" height="220" viewBox="0 0 850 220">
  <defs>
    <style>
      .metric-icon {
        animation: count-glow 4s ease-in-out infinite;
      }
      @keyframes count-glow {
        0%, 100% { fill-opacity: 0.6; transform: scale(1); }
        50% { fill-opacity: 1; transform: scale(1.1); }
      }
      .metric-cell {
        animation: fade-in 0.8s ease-out forwards;
      }
      @keyframes fade-in {
        from { opacity: 0; transform: translateY(10px); }
        to { opacity: 1; transform: translateY(0); }
      }
    </style>
    <filter id="num-glow" x="-50%" y="-50%" width="200%" height="200%">
      <feGaussianBlur stdDeviation="4"/>
    </filter>
  </defs>

  <rect x="0.5" y="0.5" width="849" height="219" rx="16" ry="16"
        fill="#0f1623" stroke="#1a2332" stroke-width="1.5"/>

  <g transform="translate(35, 38)">
    <circle cx="-10" cy="-4" r="3" fill="#00d4ff" />
    <text fill="#64748b" font-size="12" font-family="monospace" letter-spacing="4" font-weight="bold">MISSION TELEMETRY</text>
  </g>

  <line x1="170.0" y1="80" x2="170.0" y2="160" stroke="#1a2332" stroke-width="1" opacity="0.3"/>
<line x1="340.0" y1="80" x2="340.0" y2="160" stroke="#1a2332" stroke-width="1" opacity="0.3"/>
<line x1="510.0" y1="80" x2="510.0" y2="160" stroke="#1a2332" stroke-width="1" opacity="0.3"/>
<line x1="680.0" y1="80" x2="680.0" y2="160" stroke="#1a2332" stroke-width="1" opacity="0.3"/>

  
    <g class="metric-cell" transform="translate(85.0, 0)">
      <rect x="-68.0" y="55" width="136.0" height="130" rx="15" fill="#00d4ff" opacity="0.03" />
      
      <g transform="translate(-10, 80)">
        <svg viewBox="0 0 16 16" width="20" height="20" fill="#00d4ff" class="metric-icon" style="animation-delay: 0.0s">
          <path d="M8 1a7 7 0 1 0 0 14A7 7 0 0 0 8 1zm0 2.5a4.5 4.5 0 0 1 4.473 4H14.5a.5.5 0 0 1 0 1h-2.027A4.5 4.5 0 0 1 8 12.5a4.5 4.5 0 0 1-4.473-4H1.5a.5.5 0 0 1 0-1h2.027A4.5 4.5 0 0 1 8 3.5zm0 1.5a3 3 0 1 0 0 6 3 3 0 0 0 0-6z"/>
        </svg>
      </g>
      
      <text x="0" y="135" text-anchor="middle" fill="#00d4ff" font-size="32" font-weight="800" font-family="sans-serif" opacity="0.3" filter="url(#num-glow)">780</text>
      <text x="0" y="135" text-anchor="middle" fill="#f1f5f9" font-size="32" font-weight="800" font-family="sans-serif">780</text>
      
      <text x="0" y="165" text-anchor="middle" fill="#64748b" font-size="10" font-family="monospace" letter-spacing="2" font-weight="bold">COMMITS</text>
    </g>

    <g class="metric-cell" transform="translate(255.0, 0)">
      <rect x="-68.0" y="55" width="136.0" height="130" rx="15" fill="#ffb020" opacity="0.03" />
      
      <g transform="translate(-10, 80)">
        <svg viewBox="0 0 16 16" width="20" height="20" fill="#ffb020" class="metric-icon" style="animation-delay: 0.2s">
          <path d="M8 .25a.75.75 0 0 1 .673.418l1.882 3.815 4.21.612a.75.75 0 0 1 .416 1.279l-3.046 2.97.719 4.192a.75.75 0 0 1-1.088.791L8 12.347l-3.766 1.98a.75.75 0 0 1-1.088-.79l.72-4.194L.818 6.374a.75.75 0 0 1 .416-1.28l4.21-.611L7.327.668A.75.75 0 0 1 8 .25z"/>
        </svg>
      </g>
      
      <text x="0" y="135" text-anchor="middle" fill="#ffb020" font-size="32" font-weight="800" font-family="sans-serif" opacity="0.3" filter="url(#num-glow)">1</text>
      <text x="0" y="135" text-anchor="middle" fill="#f1f5f9" font-size="32" font-weight="800" font-family="sans-serif">1</text>
      
      <text x="0" y="165" text-anchor="middle" fill="#64748b" font-size="10" font-family="monospace" letter-spacing="2" font-weight="bold">STARS</text>
    </g>

    <g class="metric-cell" transform="translate(425.0, 0)">
      <rect x="-68.0" y="55" width="136.0" height="130" rx="15" fill="#a78bfa" opacity="0.03" />
      
      <g transform="translate(-10, 80)">
        <svg viewBox="0 0 16 16" width="20" height="20" fill="#a78bfa" class="metric-icon" style="animation-delay: 0.4s">
          <path d="M5 3.254V3.25v.005a.75.75 0 1 1 0-.005zm6.5 8a.75.75 0 1 1 0 1.5.75.75 0 0 1 0-1.5zM5 12.75a.75.75 0 1 1 0 1.5.75.75 0 0 1 0-1.5zm-1.5.75a1.5 1.5 0 1 0 1.5 1.5v-8.5a1.5 1.5 0 1 0-1.5-1.5v8.5a1.5 1.5 0 0 0 0 0zm8.5-2.5a1.5 1.5 0 0 0-1.5 1.5 1.5 1.5 0 1 0 3 0v-3.133l.025-.05A3.252 3.252 0 0 0 11 5.25V3.5h1.25a.75.75 0 0 0 .53-1.28l-2-2a.75.75 0 0 0-1.06 0l-2 2A.75.75 0 0 0 8.25 3.5H9.5v1.75a1.75 1.75 0 0 0 1.75 1.75h.244a1.75 1.75 0 0 1 1.006.319V11a1.5 1.5 0 0 0-1.5-1.5z"/>
        </svg>
      </g>
      
      <text x="0" y="135" text-anchor="middle" fill="#a78bfa" font-size="32" font-weight="800" font-family="sans-serif" opacity="0.3" filter="url(#num-glow)">40</text>
      <text x="0" y="135" text-anchor="middle" fill="#f1f5f9" font-size="32" font-weight="800" font-family="sans-serif">40</text>
      
      <text x="0" y="165" text-anchor="middle" fill="#64748b" font-size="10" font-family="monospace" letter-spacing="2" font-weight="bold">PRS</text>
    </g>

    <g class="metric-cell" transform="translate(595.0, 0)">
      <rect x="-68.0" y="55" width="136.0" height="130" rx="15" fill="#00d4ff" opacity="0.03" />
      
      <g transform="translate(-10, 80)">
        <svg viewBox="0 0 16 16" width="20" height="20" fill="#00d4ff" class="metric-icon" style="animation-delay: 0.6000000000000001s">
          <path d="M8 9.5a1.5 1.5 0 1 0 0-3 1.5 1.5 0 0 0 0 3z"/><path d="M8 0a8 8 0 1 1 0 16A8 8 0 0 1 8 0zm0 1.5a6.5 6.5 0 1 0 0 13 6.5 6.5 0 0 0 0-13z"/>
        </svg>
      </g>
      
      <text x="0" y="135" text-anchor="middle" fill="#00d4ff" font-size="32" font-weight="800" font-family="sans-serif" opacity="0.3" filter="url(#num-glow)">0</text>
      <text x="0" y="135" text-anchor="middle" fill="#f1f5f9" font-size="32" font-weight="800" font-family="sans-serif">0</text>
      
      <text x="0" y="165" text-anchor="middle" fill="#64748b" font-size="10" font-family="monospace" letter-spacing="2" font-weight="bold">ISSUES</text>
    </g>

    <g class="metric-cell" transform="translate(765.0, 0)">
      <rect x="-68.0" y="55" width="136.0" height="130" rx="15" fill="#a78bfa" opacity="0.03" />
      
      <g transform="translate(-10, 80)">
        <svg viewBox="0 0 16 16" width="20" height="20" fill="#a78bfa" class="metric-icon" style="animation-delay: 0.8s">
          <path d="M2 2.5A2.5 2.5 0 0 1 4.5 0h8.75a.75.75 0 0 1 .75.75v12.5a.75.75 0 0 1-.75.75h-2.5a.75.75 0 0 1 0-1.5h1.75v-2h-8a1 1 0 0 0-.714 1.7.75.75 0 0 1-1.072 1.05A2.495 2.495 0 0 1 2 11.5zm10.5-1h-8a1 1 0 0 0-1 1v6.708A2.486 2.486 0 0 1 4.5 9h8zM5 12.25a.25.25 0 0 1 .25-.25h3.5a.25.25 0 0 1 .25.25v3.25a.25.25 0 0 1-.4.2l-1.45-1.087a.25.25 0 0 0-.3 0L5.4 15.7a.25.25 0 0 1-.4-.2z"/>
        </svg>
      </g>
      
      <text x="0" y="135" text-anchor="middle" fill="#a78bfa" font-size="32" font-weight="800" font-family="sans-serif" opacity="0.3" filter="url(#num-glow)">6</text>
      <text x="0" y="135" text-anchor="middle" fill="#f1f5f9" font-size="32" font-weight="800" font-family="sans-serif">6</text>
      
      <text x="0" y="165" text-anchor="middle" fill="#64748b" font-size="10" font-family="monospace" letter-spacing="2" font-weight="bold">REPOS</text>
    </g>
</svg>