<svg xmlns="http://www.w3.org/2000/svg" width="850" height="350" viewBox="0 0 850 350">
  <defs>
    <filter id="needle-glow" x="-50%" y="-50%" width="200%" height="200%"><feGaussianBlur stdDeviation="2" result="blur"/><feMerge><feMergeNode in="blur"/><feMergeNode in="SourceGraphic"/></feMerge></filter>
    <radialGradient id="radar-gradient" cx="50%" cy="50%" r="50%"><stop offset="0%" stop-color="#00d4ff" stop-opacity="0"/><stop offset="100%" stop-color="#00d4ff" stop-opacity="0.3"/></radialGradient>
  </defs>
  <rect x="0.5" y="0.5" width="849" height="349" rx="15" ry="15" fill="#0f1623" stroke="#1a2332" stroke-width="1.5"/>
  <g transform="translate(40, 45)"><rect width="3" height="15" fill="#00d4ff" rx="1"/><text x="12" y="12" fill="#64748b" font-size="11" font-family="monospace" letter-spacing="3" font-weight="bold">LANGUAGE TELEMETRY</text></g>
  <g transform="translate(465, 45)"><rect width="3" height="15" fill="#a78bfa" rx="1"/><text x="12" y="12" fill="#64748b" font-size="11" font-family="monospace" letter-spacing="3" font-weight="bold">FOCUS SECTORS</text></g>
  <line x1="425" y1="40" x2="425" y2="310" stroke="#1a2332" stroke-width="1" stroke-dasharray="5,5" opacity="0.3"/>
  
    <g transform="translate(40, 85)">
      <text x="0" y="0" fill="#94a3b8" font-size="12" font-family="sans-serif" font-weight="bold" dominant-baseline="middle">TypeScript</text>
      <rect x="100" y="-6" width="180" height="10" rx="5" fill="#1a2332" opacity="0.4"/>
      <rect x="100" y="-6" width="103.68" height="10" rx="5" fill="#3178c6" opacity="0.9">
        <animate attributeName="width" from="0" to="103.68" dur="1s" begin="0.0s" fill="freeze" calcMode="spline" keySplines="0.4 0 0.2 1"/>
      </rect>
      <text x="295" y="0" fill="#64748b" font-size="11" font-family="monospace" font-weight="bold" dominant-baseline="middle">57.6%</text>
    </g>

    <g transform="translate(40, 117)">
      <text x="0" y="0" fill="#94a3b8" font-size="12" font-family="sans-serif" font-weight="bold" dominant-baseline="middle">JavaScript</text>
      <rect x="100" y="-6" width="180" height="10" rx="5" fill="#1a2332" opacity="0.4"/>
      <rect x="100" y="-6" width="71.28" height="10" rx="5" fill="#f1e05a" opacity="0.9">
        <animate attributeName="width" from="0" to="71.28" dur="1s" begin="0.15s" fill="freeze" calcMode="spline" keySplines="0.4 0 0.2 1"/>
      </rect>
      <text x="295" y="0" fill="#64748b" font-size="11" font-family="monospace" font-weight="bold" dominant-baseline="middle">39.6%</text>
    </g>

    <g transform="translate(40, 149)">
      <text x="0" y="0" fill="#94a3b8" font-size="12" font-family="sans-serif" font-weight="bold" dominant-baseline="middle">CSS</text>
      <rect x="100" y="-6" width="180" height="10" rx="5" fill="#1a2332" opacity="0.4"/>
      <rect x="100" y="-6" width="4" height="10" rx="5" fill="#563d7c" opacity="0.9">
        <animate attributeName="width" from="0" to="4" dur="1s" begin="0.3s" fill="freeze" calcMode="spline" keySplines="0.4 0 0.2 1"/>
      </rect>
      <text x="295" y="0" fill="#64748b" font-size="11" font-family="monospace" font-weight="bold" dominant-baseline="middle">2.0%</text>
    </g>

    <g transform="translate(40, 181)">
      <text x="0" y="0" fill="#94a3b8" font-size="12" font-family="sans-serif" font-weight="bold" dominant-baseline="middle">HTML</text>
      <rect x="100" y="-6" width="180" height="10" rx="5" fill="#1a2332" opacity="0.4"/>
      <rect x="100" y="-6" width="4" height="10" rx="5" fill="#e34c26" opacity="0.9">
        <animate attributeName="width" from="0" to="4" dur="1s" begin="0.44999999999999996s" fill="freeze" calcMode="spline" keySplines="0.4 0 0.2 1"/>
      </rect>
      <text x="295" y="0" fill="#64748b" font-size="11" font-family="monospace" font-weight="bold" dominant-baseline="middle">0.5%</text>
    </g>

    <g transform="translate(40, 213)">
      <text x="0" y="0" fill="#94a3b8" font-size="12" font-family="sans-serif" font-weight="bold" dominant-baseline="middle">Dockerfile</text>
      <rect x="100" y="-6" width="180" height="10" rx="5" fill="#1a2332" opacity="0.4"/>
      <rect x="100" y="-6" width="4" height="10" rx="5" fill="#384d54" opacity="0.9">
        <animate attributeName="width" from="0" to="4" dur="1s" begin="0.6s" fill="freeze" calcMode="spline" keySplines="0.4 0 0.2 1"/>
      </rect>
      <text x="295" y="0" fill="#64748b" font-size="11" font-family="monospace" font-weight="bold" dominant-baseline="middle">0.3%</text>
    </g>
  <g opacity="0.9">
    <circle cx="630" cy="195.0" r="30" fill="none" stroke="#64748b" stroke-width="0.7" stroke-dasharray="4,4" opacity="0.1"/>
<circle cx="630" cy="195.0" r="55" fill="none" stroke="#64748b" stroke-width="0.7" stroke-dasharray="4,4" opacity="0.2"/>
<circle cx="630" cy="195.0" r="80" fill="none" stroke="#64748b" stroke-width="0.7" stroke-dasharray="4,4" opacity="0.30000000000000004"/>
    <path d="M 630 195.0 L 632.8 115.0 A 80 80 0 0 1 700.6 232.6 Z" fill="#a78bfa" fill-opacity="0.08" stroke="#a78bfa" stroke-opacity="0.4" stroke-width="1"/>
<path d="M 630 195.0 L 697.8 237.4 A 80 80 0 0 1 562.2 237.4 Z" fill="#00d4ff" fill-opacity="0.08" stroke="#00d4ff" stroke-opacity="0.4" stroke-width="1"/>
<path d="M 630 195.0 L 559.4 232.6 A 80 80 0 0 1 627.2 115.0 Z" fill="#ffb020" fill-opacity="0.08" stroke="#ffb020" stroke-opacity="0.4" stroke-width="1"/>
    
    <g>
      <path d="M 630 195.0 L 578.6 133.7 A 80 80 0 0 1 630.0 115.0 Z" fill="url(#radar-gradient)" fill-opacity="0.4"/>
      <line x1="630" y1="195.0" x2="630" y2="115.0" stroke="#00d4ff" stroke-width="2" stroke-linecap="round"/>
      <circle cx="630" cy="115.0" r="3" fill="#00d4ff" filter="url(#needle-glow)"/>
      <animateTransform attributeName="transform" type="rotate" from="0 630 195.0" to="360 630 195.0" dur="6s" repeatCount="indefinite"/>
    </g>
    <text x="718.3" y="144.0" fill="#a78bfa" font-size="10" font-family="monospace" text-anchor="start" dominant-baseline="middle">Frontend</text>
<text x="718.3" y="156.0" fill="#64748b" font-size="8" font-family="monospace" text-anchor="start" dominant-baseline="middle">(3)</text>
<text x="630.0" y="297.0" fill="#00d4ff" font-size="10" font-family="monospace" text-anchor="middle" dominant-baseline="middle">Backend</text>
<text x="630.0" y="309.0" fill="#64748b" font-size="8" font-family="monospace" text-anchor="middle" dominant-baseline="middle">(3)</text>
<text x="541.7" y="144.0" fill="#ffb020" font-size="10" font-family="monospace" text-anchor="end" dominant-baseline="middle">DevOps</text>
<text x="541.7" y="156.0" fill="#64748b" font-size="8" font-family="monospace" text-anchor="end" dominant-baseline="middle">(1)</text>
<circle cx="636.7" cy="163.7" r="3" fill="#a78bfa" opacity="0.35"><animate attributeName="opacity" values="0.35;1.0;0.35" dur="6s" begin="0.00s" repeatCount="indefinite"/></circle>
<circle cx="678.5" cy="167.0" r="3" fill="#a78bfa" opacity="0.35"><animate attributeName="opacity" values="0.35;1.0;0.35" dur="6s" begin="0.70s" repeatCount="indefinite"/></circle>
<circle cx="698.5" cy="217.2" r="3" fill="#a78bfa" opacity="0.35"><animate attributeName="opacity" values="0.35;1.0;0.35" dur="6s" begin="1.50s" repeatCount="indefinite"/></circle>
<circle cx="653.8" cy="216.4" r="3" fill="#00d4ff" opacity="0.35"><animate attributeName="opacity" values="0.35;1.0;0.35" dur="6s" begin="1.90s" repeatCount="indefinite"/></circle>
<circle cx="630.0" cy="251.0" r="3" fill="#00d4ff" opacity="0.35"><animate attributeName="opacity" values="0.35;1.0;0.35" dur="6s" begin="2.70s" repeatCount="indefinite"/></circle>
<circle cx="576.5" cy="243.2" r="3" fill="#00d4ff" opacity="0.35"><animate attributeName="opacity" values="0.35;1.0;0.35" dur="6s" begin="3.50s" repeatCount="indefinite"/></circle>
<circle cx="602.3" cy="179.0" r="3" fill="#ffb020" opacity="0.35"><animate attributeName="opacity" values="0.35;1.0;0.35" dur="6s" begin="4.70s" repeatCount="indefinite"/></circle>
  </g>
</svg>